<svg width="223" height="90" viewBox="0 0 223 90" fill="none" xmlns="http://www.w3.org/2000/svg">
<path d="M0.647 46.05H22.9C26.6833 46.05 28.575 44.7557 28.575 42.167C28.575 39.528 26.683 38.234 22.9 38.234H13.79C8.662 38.234 5.177 37.534 3.236 36.093C1.1 34.5 0 31.414 0 26.987C0 18.673 4.68 14.487 14.089 14.487H36.741V22.801H18.121C16.295 22.7083 14.4656 22.893 12.695 23.349C12.0896 23.5871 11.5803 24.0194 11.247 24.578C10.9137 25.1367 10.7751 25.7901 10.853 26.436C10.853 28.826 12.496 30.02 15.831 30.02H25.39C34.351 30.02 38.832 34.003 38.832 41.92C38.9693 45.2197 37.8682 48.4515 35.745 50.981C34.7742 52.0921 33.5706 52.9759 32.2198 53.5695C30.869 54.1632 29.4041 54.4522 27.929 54.416H0.647V46.05Z" fill="#34495D"/>
<path d="M61.633 54.414C48.241 54.414 41.5367 47.7597 41.52 34.451C41.52 21.109 48.241 14.488 61.633 14.488H77.02V22.802H63.08C59.496 22.802 57.056 23.25 55.712 24.146C54.165 25.187 53.32 27.232 53.22 30.269H77.02V38.587H53.269C53.369 41.723 54.169 43.765 55.659 44.76C56.904 45.606 59.393 46.005 63.027 46.005H77.066V54.319H61.633V54.414Z" fill="#34495D"/>
<path d="M130.534 14.487H152.145C163.097 14.487 168.624 19.465 168.624 29.422V54.414H140.291C136.308 54.414 133.271 53.414 131.131 51.427C128.991 49.44 127.945 46.598 127.945 42.914C127.945 38.334 129.19 35.048 131.679 33.107C134.168 31.166 138.25 30.17 143.879 30.17H157.769V29.17C157.769 26.681 157.022 24.988 155.479 24.042C154.085 23.142 151.646 22.698 148.21 22.698H130.534V14.487ZM144.573 46.349H157.766V38.134H145.32C143.611 38.0092 141.899 38.3188 140.342 39.034C139.297 39.681 138.799 40.876 138.799 42.618C138.799 44.3107 139.396 45.406 140.591 45.904C141.883 46.2792 143.23 46.4298 144.573 46.349Z" fill="#34495D"/>
<path d="M185.245 54.414H174.245V0H185.245V54.414Z" fill="#34495D"/>
<path d="M189.18 14.487H196.598V0H207.152V14.487H218.304V22.452H207.152V38.582C207.152 41.42 207.6 43.461 208.496 44.606C209.496 45.851 211.334 46.448 213.923 46.448H218.254V54.413H208.646C200.581 54.413 196.598 50.231 196.598 41.913V22.4H189.18V14.487Z" fill="#34495D"/>
<path d="M94.689 25.788H82.492V54.414H94.689V25.788Z" fill="#34495D"/>
<path d="M109.724 14.139H97.527V54.365H109.724V14.139Z" fill="#34495D"/>
<path d="M124.809 20.113H112.612V54.464H124.809V20.113Z" fill="#34495D"/>
<path d="M218.975 67.32H6.494V86.254H218.975V67.32Z" fill="white"/>
<path d="M0.000999451 89.761V62.877H222.535V89.761H0.000999451ZM128.195 82.044H130.236V78.857H136.31C136.834 78.8448 137.333 78.6312 137.704 78.2606C138.074 77.89 138.288 77.3909 138.3 76.867V73.431C138.288 72.9069 138.074 72.4078 137.703 72.0369C137.333 71.666 136.834 71.452 136.31 71.439H128.195V82.044ZM103.352 73.332H107.633V82.044H109.674V73.332H113.957V71.439H103.357L103.352 73.332ZM13.641 82.044H22.254C22.7783 82.0313 23.2777 81.8174 23.6485 81.4465C24.0194 81.0757 24.2333 80.5763 24.246 80.052V78.111C24.2467 77.9153 24.2073 77.7216 24.13 77.5419C24.0528 77.3621 23.9394 77.2001 23.797 77.066L23.497 76.766L23.797 76.466C23.9439 76.3247 24.0597 76.1544 24.137 75.9659C24.2143 75.7773 24.2514 75.5747 24.246 75.371V73.431C24.2326 72.9069 24.0184 72.408 23.6477 72.0373C23.277 71.6666 22.7781 71.4524 22.254 71.439H13.641V82.044ZM197.641 81.995H206.301C206.597 82.0057 206.893 81.9534 207.167 81.8418C207.442 81.7301 207.69 81.5614 207.895 81.347C208.105 81.1389 208.271 80.8904 208.382 80.6164C208.494 80.3424 208.548 80.0487 208.543 79.753V73.63C208.554 73.3343 208.502 73.0397 208.391 72.7653C208.281 72.4908 208.114 72.2427 207.901 72.037C207.693 71.8264 207.445 71.6604 207.171 71.549C206.897 71.4376 206.603 71.3832 206.307 71.389H197.644L197.641 81.995ZM193.061 80.251L193.861 81.995H195.853L191.371 71.395H188.584L184.104 81.995H186.094L186.894 80.251H193.061ZM173.001 81.995H182.311V80.251H175.091V77.662H181.066V75.722H175.091V73.132H182.31V71.39H173.001V81.995ZM168.47 77.663V81.995H170.511V71.39H168.47V75.772H162.001V71.39H159.96V81.99H162.001V77.662L168.47 77.663ZM155.377 80.251L156.177 81.995H158.169L153.687 71.395H150.901L146.419 81.995H148.411L149.211 80.251H155.377ZM116.396 81.995H125.706V80.251H118.489V77.662H124.462V75.722H118.489V73.132H125.701V71.39H116.391L116.396 81.995ZM89.712 79.355V79.955C89.6921 80.4425 89.851 80.9205 90.159 81.299C90.3516 81.5193 90.5891 81.6957 90.8556 81.8165C91.1221 81.9372 91.4114 81.9995 91.704 81.999H98.971C99.4954 81.9866 99.9949 81.7727 100.366 81.4018C100.737 81.0309 100.951 80.5314 100.963 80.007V77.564C100.969 77.3335 100.928 77.1042 100.843 76.89C100.757 76.6758 100.629 76.4812 100.466 76.3181C100.303 76.1549 100.109 76.0267 99.8949 75.941C99.6808 75.8554 99.4515 75.8142 99.221 75.82H91.952C91.9059 75.8212 91.8601 75.8131 91.8172 75.796C91.7744 75.779 91.7355 75.7534 91.7028 75.7209C91.6702 75.6883 91.6445 75.6495 91.6273 75.6067C91.6102 75.5639 91.6019 75.5181 91.603 75.472V73.977C91.6035 73.8927 91.6215 73.8094 91.6559 73.7324C91.6904 73.6555 91.7404 73.5865 91.803 73.53C91.8532 73.4597 91.9213 73.4041 92.0003 73.3689C92.0792 73.3337 92.1661 73.3203 92.252 73.33H98.324C98.4169 73.3251 98.5097 73.3404 98.596 73.3749C98.6824 73.4095 98.7602 73.4624 98.824 73.53C98.894 73.5801 98.9494 73.6479 98.9846 73.7264C99.0197 73.805 99.0333 73.8914 99.024 73.977V74.077C99.0239 74.0835 99.025 74.0899 99.0275 74.0959C99.0299 74.1019 99.0335 74.1074 99.038 74.112C99.0426 74.1165 99.0481 74.1201 99.0541 74.1225C99.0601 74.125 99.0665 74.1261 99.073 74.126L100.964 74.077H101.015V73.477C101.002 72.953 100.788 72.4542 100.417 72.0838C100.046 71.7133 99.547 71.4997 99.023 71.487H91.753C91.2289 71.4992 90.7295 71.7127 90.3586 72.0832C89.9877 72.4538 89.7737 72.9529 89.761 73.477V75.918C89.755 76.1483 89.7958 76.3775 89.8811 76.5915C89.9663 76.8056 90.0942 77.0001 90.257 77.1632C90.4197 77.3263 90.6139 77.4546 90.8277 77.5404C91.0416 77.6261 91.2707 77.6675 91.501 77.662H98.72C98.8122 77.6632 98.9007 77.6989 98.968 77.762C99.019 77.862 99.068 77.911 99.068 78.01V79.504C99.079 79.574 99.0758 79.6454 99.0586 79.7141C99.0414 79.7829 99.0106 79.8474 98.968 79.904C98.9068 79.9784 98.8307 80.0391 98.7446 80.0822C98.6584 80.1252 98.5642 80.1497 98.468 80.154H92.301C92.1532 80.1591 92.0094 80.1055 91.901 80.005C91.7497 79.8621 91.66 79.6659 91.651 79.458V79.358C91.6511 79.3515 91.65 79.3451 91.6475 79.3391C91.6451 79.3331 91.6415 79.3276 91.6369 79.323C91.6324 79.3185 91.6269 79.3149 91.6209 79.3125C91.6149 79.31 91.6085 79.3089 91.602 79.309H89.762C89.7557 79.3087 89.7494 79.3097 89.7435 79.3119C89.7375 79.314 89.7321 79.3174 89.7275 79.3216C89.7228 79.3259 89.7191 79.331 89.7164 79.3368C89.7138 79.3425 89.7123 79.3487 89.712 79.355ZM71.59 81.995H80.901V80.251H73.681V77.662H79.655V75.722H73.681V73.132H80.901V71.39H71.591L71.59 81.995ZM66.412 81.995H69.149V71.39H67.109V79.554L61.682 71.39H58.746V81.99H60.836V73.63L66.412 81.995ZM45.454 72.086C45.2316 72.298 45.0547 72.5531 44.9344 72.8358C44.814 73.1185 44.7526 73.4228 44.754 73.73V79.654C44.7643 80.2711 45.0138 80.86 45.45 81.2966C45.8862 81.7331 46.475 81.9832 47.092 81.994H53.963C54.5806 81.984 55.17 81.7342 55.6069 81.2976C56.0437 80.8609 56.2937 80.2716 56.304 79.654V73.73C56.2937 73.1124 56.0437 72.5231 55.6069 72.0864C55.17 71.6498 54.5806 71.4 53.963 71.39H47.095C46.7886 71.3887 46.4851 71.4497 46.203 71.5694C45.9209 71.689 45.6661 71.8648 45.454 72.086ZM26.685 81.995H35.995V80.251H28.775V77.662H34.748V75.722H28.775V73.132H35.994V71.39H26.684L26.685 81.995ZM60.239 69.349H67.707V67.855H60.239V69.349ZM15.682 80.249V77.509H21.656C21.7387 77.5025 21.8218 77.5132 21.9001 77.5404C21.9784 77.5677 22.0502 77.6108 22.111 77.6672C22.1718 77.7236 22.2202 77.792 22.2533 77.868C22.2863 77.944 22.3033 78.0261 22.303 78.109V79.603C22.2804 79.768 22.211 79.9232 22.103 80.05C22.0463 80.1126 21.9772 80.1627 21.9 80.1971C21.8229 80.2315 21.7395 80.2495 21.655 80.25L15.682 80.249ZM47.594 80.198C47.4625 80.2018 47.3318 80.1769 47.2109 80.1251C47.0901 80.0733 46.9819 79.9958 46.894 79.898C46.8001 79.807 46.7253 79.6983 46.6738 79.5781C46.6223 79.4579 46.5951 79.3287 46.594 79.198V74.328C46.5898 74.1965 46.6145 74.0656 46.6663 73.9447C46.7181 73.8238 46.7959 73.7157 46.894 73.628C46.9847 73.5337 47.0934 73.4586 47.2136 73.4071C47.3338 73.3555 47.4632 73.3286 47.594 73.328H53.469C53.594 73.3134 53.7206 73.3337 53.8348 73.3867C53.949 73.4396 54.0463 73.5232 54.116 73.628C54.2101 73.7189 54.285 73.8276 54.3365 73.9478C54.3881 74.068 54.4151 74.1972 54.416 74.328V79.205C54.4195 79.3364 54.3945 79.4671 54.3428 79.5879C54.291 79.7087 54.2136 79.8169 54.116 79.905C54.0251 79.9991 53.9164 80.074 53.7962 80.1255C53.676 80.1771 53.5468 80.2041 53.416 80.205L47.594 80.198ZM199.537 80.149V73.329H205.66C205.793 73.3136 205.927 73.3332 206.05 73.3858C206.173 73.4385 206.28 73.5223 206.36 73.629C206.454 73.7198 206.529 73.8285 206.581 73.9487C206.632 74.0689 206.659 74.1982 206.66 74.329V79.206C206.658 79.3289 206.631 79.4499 206.579 79.5614C206.527 79.6729 206.453 79.7722 206.36 79.853C206.269 79.9468 206.16 80.0217 206.04 80.0732C205.92 80.1247 205.791 80.1518 205.66 80.153L199.537 80.149ZM187.688 78.557L189.977 72.731L192.217 78.557H187.688ZM150 78.557L152.291 72.731L154.531 78.557H150ZM130.237 76.963V73.332H135.762C135.931 73.3405 136.091 73.4115 136.21 73.5313C136.33 73.651 136.401 73.811 136.409 73.98V76.318C136.386 76.4835 136.317 76.6391 136.209 76.767C136.152 76.8296 136.083 76.8798 136.006 76.9142C135.929 76.9486 135.845 76.9666 135.761 76.967L130.237 76.963ZM15.682 75.871V73.133H21.656C21.8155 73.1436 21.9696 73.1945 22.104 73.281C22.1668 73.3378 22.217 73.407 22.2515 73.4843C22.2859 73.5617 22.3038 73.6453 22.304 73.73V75.224C22.2813 75.389 22.2119 75.5441 22.104 75.671C22.0472 75.7335 21.9781 75.7836 21.901 75.818C21.8239 75.8525 21.7405 75.8705 21.656 75.871H15.682Z" fill="#FF1F4A"/>
</svg>
