<svg xmlns="http://www.w3.org/2000/svg" width="155" height="155" viewBox="0 0 155 155"><defs><clipPath id="9dbaa"><path fill="#fff" d="M0 155V0h155v155zm5-77.501c0 40.04 32.46 72.5 72.5 72.5s72.5-32.46 72.5-72.5-32.46-72.5-72.5-72.5S5 37.459 5 77.499z"/></clipPath></defs><g><g><path fill="gray" d="M77.5 4.999c40.04 0 72.5 32.46 72.5 72.5s-32.46 72.5-72.5 72.5S5 117.539 5 77.499s32.46-72.5 72.5-72.5z"/><path fill="none" stroke="#ff6f97" stroke-linecap="round" stroke-linejoin="round" stroke-miterlimit="50" stroke-width="10" d="M77.5 4.999c40.04 0 72.5 32.46 72.5 72.5s-32.46 72.5-72.5 72.5S5 117.539 5 77.499s32.46-72.5 72.5-72.5z" clip-path="url(&quot;#9dbaa&quot;)"/></g></g></svg>