<svg xmlns="http://www.w3.org/2000/svg" width="130" height="172" viewBox="0 0 130 172"><g><g><path fill="#fff" d="M88.056 25.073a2.696 2.696 0 0 1-3.63 1.197c-16.767-8.502-36.963-5.25-50.258 8.09-15.45 15.504-16.998 40.222-3.6 57.497a2.717 2.717 0 0 1-.474 3.804 2.694 2.694 0 0 1-3.79-.474c-15.068-19.43-13.33-47.227 4.044-64.66 14.948-15 37.66-18.656 56.515-9.096a2.714 2.714 0 0 1 1.193 3.642zM99.364 99.78c-9.46 9.493-21.982 14.334-34.553 14.334-10.515 0-21.065-3.387-29.884-10.275a2.716 2.716 0 0 1-.473-3.804 2.696 2.696 0 0 1 3.79-.474c17.216 13.443 41.849 11.89 57.3-3.614a43.577 43.577 0 0 0 8.066-50.423 2.715 2.715 0 0 1 1.194-3.641 2.698 2.698 0 0 1 3.629 1.197 49.002 49.002 0 0 1-9.069 56.7zm1.854-63.198a2.687 2.687 0 0 1-1.787.68 2.69 2.69 0 0 1-2.025-.916 44.42 44.42 0 0 0-3.842-3.855 2.716 2.716 0 0 1-.235-3.825 2.694 2.694 0 0 1 3.813-.236 49.572 49.572 0 0 1 4.312 4.327 2.716 2.716 0 0 1-.236 3.825zm23.84 39.28a3.825 3.825 0 0 0-.509 2.576l1.06 6.756a9.208 9.208 0 0 1-3.677 8.901l-5.51 4.02a3.815 3.815 0 0 0-1.457 2.186l-1.604 6.652a9.181 9.181 0 0 1-6.78 6.802l-2.663.646 18.742 41.953a2.718 2.718 0 0 1-.289 2.715 2.698 2.698 0 0 1-2.496 1.085l-15.073-1.808-8.683 12.494a2.699 2.699 0 0 1-4.68-.442L72.283 127.52l-2.511 1.536a9.168 9.168 0 0 1-4.79 1.356 9.164 9.164 0 0 1-4.79-1.356l-2.424-1.483-19.132 42.825A2.703 2.703 0 0 1 36.171 172c-.878 0-1.707-.43-2.215-1.16l-8.683-12.494-15.073 1.808a2.695 2.695 0 0 1-2.496-1.085 2.718 2.718 0 0 1-.289-2.715l18.732-41.93-2.768-.672a9.18 9.18 0 0 1-6.778-6.802l-1.604-6.652a3.816 3.816 0 0 0-1.457-2.185l-5.508-4.02a9.208 9.208 0 0 1-3.677-8.902l1.06-6.754a3.827 3.827 0 0 0-.51-2.576l-3.553-5.848a9.226 9.226 0 0 1 0-9.613l3.554-5.849c.468-.77.649-1.685.509-2.576l-1.06-6.756a9.208 9.208 0 0 1 3.678-8.901l5.508-4.02A3.814 3.814 0 0 0 15 30.11l1.604-6.651a9.181 9.181 0 0 1 6.78-6.802l6.628-1.61a3.803 3.803 0 0 0 2.179-1.462l4.006-5.526a9.15 9.15 0 0 1 8.87-3.69l6.73 1.063c.89.14 1.801-.041 2.569-.511l5.827-3.566a9.14 9.14 0 0 1 9.58 0l5.83 3.567c.766.47 1.679.65 2.567.51L84.9 4.372a9.147 9.147 0 0 1 8.87 3.69l4.007 5.527a3.8 3.8 0 0 0 2.178 1.463l6.629 1.61a9.18 9.18 0 0 1 6.778 6.802l1.604 6.651c.212.879.73 1.654 1.458 2.186l5.507 4.02a9.21 9.21 0 0 1 3.677 8.902l-1.06 6.753c-.14.891.042 1.806.51 2.577l3.554 5.848a9.225 9.225 0 0 1 0 9.613zm-72.056 49.125a3.772 3.772 0 0 0-1.207-.008l-6.732 1.062a9.215 9.215 0 0 1-2.698.025l-8.952 20.037a2.701 2.701 0 0 1-3.57 1.364 2.714 2.714 0 0 1-1.36-3.582l8.984-20.108a9.301 9.301 0 0 1-1.275-1.425l-4.006-5.528a3.786 3.786 0 0 0-.823-.825l-17.067 38.204 11.945-1.433c.99-.12 1.966.32 2.536 1.141l6.881 9.902zm45.682-9.05c-.347.242-.657.541-.909.89l-4.006 5.526c-.358.495-.76.943-1.195 1.348l9.017 20.185a2.714 2.714 0 0 1-1.36 3.582 2.678 2.678 0 0 1-1.103.238 2.701 2.701 0 0 1-2.466-1.602l-8.958-20.053a9.21 9.21 0 0 1-2.806-.008l-6.73-1.063a3.793 3.793 0 0 0-1.102-.009l17.351 38.841 6.881-9.901a2.696 2.696 0 0 1 2.537-1.141l11.945 1.433zM124 63.223l-3.553-5.849a9.269 9.269 0 0 1-1.234-6.241l1.06-6.754a3.801 3.801 0 0 0-1.518-3.675l-5.508-4.02a9.244 9.244 0 0 1-3.53-5.295l-1.604-6.651a3.79 3.79 0 0 0-2.799-2.808l-6.628-1.61a9.209 9.209 0 0 1-5.277-3.543l-4.006-5.528a3.78 3.78 0 0 0-3.662-1.523l-6.733 1.063c-2.151.34-4.36-.1-6.22-1.238l-5.829-3.566a3.774 3.774 0 0 0-3.954 0L57.177 9.55a9.182 9.182 0 0 1-6.22 1.238l-6.731-1.063a3.775 3.775 0 0 0-3.662 1.523l-4.006 5.526a9.208 9.208 0 0 1-5.277 3.543l-6.628 1.61a3.79 3.79 0 0 0-2.799 2.808l-1.604 6.651a9.245 9.245 0 0 1-3.53 5.295l-5.51 4.02a3.802 3.802 0 0 0-1.517 3.675l1.059 6.756a9.27 9.27 0 0 1-1.234 6.241l-3.554 5.849a3.809 3.809 0 0 0 0 3.968l3.554 5.848a9.27 9.27 0 0 1 1.233 6.242l-1.06 6.754a3.801 3.801 0 0 0 1.518 3.674l5.508 4.02a9.242 9.242 0 0 1 3.53 5.296l1.604 6.651a3.79 3.79 0 0 0 2.799 2.808l6.628 1.61a9.21 9.21 0 0 1 5.276 3.543l4.007 5.528a3.776 3.776 0 0 0 3.662 1.523l6.733-1.063a9.185 9.185 0 0 1 6.22 1.238l5.829 3.566a3.774 3.774 0 0 0 3.954 0l5.828-3.566a9.184 9.184 0 0 1 6.22-1.238l6.731 1.063a3.776 3.776 0 0 0 3.662-1.523l4.006-5.526a9.208 9.208 0 0 1 5.277-3.543l6.629-1.61a3.79 3.79 0 0 0 2.798-2.807l1.604-6.652a9.246 9.246 0 0 1 3.53-5.295l5.51-4.02a3.802 3.802 0 0 0 1.518-3.675l-1.06-6.756a9.272 9.272 0 0 1 1.234-6.24L124 67.19a3.808 3.808 0 0 0 0-3.968zm-28.737-1.34L83.246 73.033l3.19 16.11a4.858 4.858 0 0 1-1.919 4.917 4.819 4.819 0 0 1-5.253.31L64.981 86.35 50.7 94.37a4.87 4.87 0 0 1-2.39.632 4.849 4.849 0 0 1-2.863-.944 4.858 4.858 0 0 1-1.919-4.917l3.19-16.11L34.7 61.883a4.86 4.86 0 0 1-1.328-5.109 4.837 4.837 0 0 1 4.068-3.35l16.254-1.935 6.855-14.914a4.833 4.833 0 0 1 4.433-2.846 4.832 4.832 0 0 1 4.432 2.846l6.856 14.914 16.254 1.934a4.837 4.837 0 0 1 4.067 3.35 4.86 4.86 0 0 1-1.328 5.11zm-4.498-3.21l-16.633-1.98a2.702 2.702 0 0 1-2.135-1.555l-7.015-15.262-7.016 15.262a2.703 2.703 0 0 1-2.134 1.556l-16.634 1.979 12.297 11.412c.69.64.999 1.593.815 2.517l-3.264 16.485 14.616-8.209a2.69 2.69 0 0 1 2.639 0l14.616 8.21L77.653 72.6a2.716 2.716 0 0 1 .815-2.517z"/></g></g></svg>